<mxfile host="app.diagrams.net" agent="Mozilla/5.0 (Windows NT 10.0; Win64; x64) AppleWebKit/537.36 (KHTML, like Gecko) Chrome/131.0.0.0 Safari/537.36 Edg/131.0.0.0" version="24.9.0">
  <diagram name="第 1 页" id="DzgNzyLA0s-523UnaJAZ">
    <mxGraphModel dx="1042" dy="565" grid="1" gridSize="10" guides="1" tooltips="1" connect="1" arrows="1" fold="1" page="1" pageScale="1" pageWidth="827" pageHeight="1169" math="0" shadow="0">
      <root>
        <mxCell id="0" />
        <mxCell id="1" parent="0" />
        <mxCell id="KBuznB1IBJVEloCkQr-8-19" value="" style="rounded=0;whiteSpace=wrap;html=1;" vertex="1" parent="1">
          <mxGeometry x="270" y="30" width="550" height="440" as="geometry" />
        </mxCell>
        <object label="用户" id="KBuznB1IBJVEloCkQr-8-1">
          <mxCell style="shape=umlActor;verticalLabelPosition=bottom;verticalAlign=top;html=1;" vertex="1" parent="1">
            <mxGeometry x="170" y="190" width="60" height="90" as="geometry" />
          </mxCell>
        </object>
        <mxCell id="KBuznB1IBJVEloCkQr-8-3" value="准点监控" style="ellipse;whiteSpace=wrap;html=1;" vertex="1" parent="1">
          <mxGeometry x="310" y="200" width="140" height="70" as="geometry" />
        </mxCell>
        <mxCell id="KBuznB1IBJVEloCkQr-8-7" value="" style="endArrow=classic;html=1;rounded=0;entryX=0;entryY=0.5;entryDx=0;entryDy=0;" edge="1" parent="1" target="KBuznB1IBJVEloCkQr-8-3">
          <mxGeometry width="50" height="50" relative="1" as="geometry">
            <mxPoint x="240" y="236.25" as="sourcePoint" />
            <mxPoint x="400" y="233.75" as="targetPoint" />
          </mxGeometry>
        </mxCell>
        <mxCell id="KBuznB1IBJVEloCkQr-8-10" value="生成监控任务" style="ellipse;whiteSpace=wrap;html=1;" vertex="1" parent="1">
          <mxGeometry x="640" y="70" width="120" height="80" as="geometry" />
        </mxCell>
        <mxCell id="KBuznB1IBJVEloCkQr-8-11" value="任务调度" style="ellipse;whiteSpace=wrap;html=1;" vertex="1" parent="1">
          <mxGeometry x="640" y="170" width="120" height="80" as="geometry" />
        </mxCell>
        <mxCell id="KBuznB1IBJVEloCkQr-8-12" value="判断数据就绪" style="ellipse;whiteSpace=wrap;html=1;" vertex="1" parent="1">
          <mxGeometry x="640" y="270" width="120" height="80" as="geometry" />
        </mxCell>
        <mxCell id="KBuznB1IBJVEloCkQr-8-13" value="告警" style="ellipse;whiteSpace=wrap;html=1;" vertex="1" parent="1">
          <mxGeometry x="640" y="370" width="120" height="80" as="geometry" />
        </mxCell>
        <mxCell id="KBuznB1IBJVEloCkQr-8-14" value="" style="endArrow=classic;html=1;rounded=0;entryX=0;entryY=0.5;entryDx=0;entryDy=0;dashed=1;" edge="1" parent="1" target="KBuznB1IBJVEloCkQr-8-10">
          <mxGeometry width="50" height="50" relative="1" as="geometry">
            <mxPoint x="450" y="240" as="sourcePoint" />
            <mxPoint x="500" y="190" as="targetPoint" />
          </mxGeometry>
        </mxCell>
        <mxCell id="KBuznB1IBJVEloCkQr-8-15" value="" style="endArrow=classic;html=1;rounded=0;entryX=0;entryY=0.5;entryDx=0;entryDy=0;dashed=1;" edge="1" parent="1" target="KBuznB1IBJVEloCkQr-8-11">
          <mxGeometry width="50" height="50" relative="1" as="geometry">
            <mxPoint x="450" y="240" as="sourcePoint" />
            <mxPoint x="500" y="190" as="targetPoint" />
          </mxGeometry>
        </mxCell>
        <mxCell id="KBuznB1IBJVEloCkQr-8-16" value="" style="endArrow=classic;html=1;rounded=0;entryX=0;entryY=0.5;entryDx=0;entryDy=0;dashed=1;" edge="1" parent="1" target="KBuznB1IBJVEloCkQr-8-12">
          <mxGeometry width="50" height="50" relative="1" as="geometry">
            <mxPoint x="450" y="240" as="sourcePoint" />
            <mxPoint x="500" y="190" as="targetPoint" />
          </mxGeometry>
        </mxCell>
        <mxCell id="KBuznB1IBJVEloCkQr-8-17" value="" style="endArrow=classic;html=1;rounded=0;entryX=0;entryY=0.5;entryDx=0;entryDy=0;dashed=1;" edge="1" parent="1" target="KBuznB1IBJVEloCkQr-8-13">
          <mxGeometry width="50" height="50" relative="1" as="geometry">
            <mxPoint x="450" y="240" as="sourcePoint" />
            <mxPoint x="500" y="190" as="targetPoint" />
          </mxGeometry>
        </mxCell>
        <mxCell id="KBuznB1IBJVEloCkQr-8-20" value="&lt;b&gt;&lt;font style=&quot;font-size: 18px;&quot;&gt;准点监控&lt;/font&gt;&lt;/b&gt;" style="text;html=1;align=center;verticalAlign=middle;whiteSpace=wrap;rounded=0;" vertex="1" parent="1">
          <mxGeometry x="505" y="30" width="80" height="50" as="geometry" />
        </mxCell>
        <mxCell id="KBuznB1IBJVEloCkQr-8-21" value="include" style="text;html=1;align=center;verticalAlign=middle;whiteSpace=wrap;rounded=0;" vertex="1" parent="1">
          <mxGeometry x="480" y="150" width="60" height="30" as="geometry" />
        </mxCell>
        <mxCell id="KBuznB1IBJVEloCkQr-8-22" value="Text" style="text;html=1;align=center;verticalAlign=middle;whiteSpace=wrap;rounded=0;" vertex="1" parent="1">
          <mxGeometry x="380" y="270" width="60" height="30" as="geometry" />
        </mxCell>
        <mxCell id="KBuznB1IBJVEloCkQr-8-23" value="include" style="text;html=1;align=center;verticalAlign=middle;whiteSpace=wrap;rounded=0;" vertex="1" parent="1">
          <mxGeometry x="540" y="190" width="60" height="30" as="geometry" />
        </mxCell>
        <mxCell id="KBuznB1IBJVEloCkQr-8-24" value="include" style="text;html=1;align=center;verticalAlign=middle;whiteSpace=wrap;rounded=0;" vertex="1" parent="1">
          <mxGeometry x="540" y="250" width="60" height="30" as="geometry" />
        </mxCell>
        <mxCell id="KBuznB1IBJVEloCkQr-8-25" value="include" style="text;html=1;align=center;verticalAlign=middle;whiteSpace=wrap;rounded=0;" vertex="1" parent="1">
          <mxGeometry x="540" y="320" width="60" height="30" as="geometry" />
        </mxCell>
      </root>
    </mxGraphModel>
  </diagram>
</mxfile>
